<?xml version="1.0" encoding="UTF-8"?>
<svg xmlns="http://www.w3.org/2000/svg" xmlns:xlink="http://www.w3.org/1999/xlink" width="100px" height="100px" viewBox="0 0 100 100" version="1.1">
<g id="surface1">
<path style=" stroke:none;fill-rule:nonzero;fill:rgb(76.078433%,84.313726%,76.078433%);fill-opacity:1;" d="M 41.890625 81.828125 C 41.890625 81.839844 41.890625 81.851562 41.890625 81.851562 C 33.128906 80.910156 23.839844 83.988281 15.671875 80.671875 C 11.238281 78.871094 7.609375 75.21875 5.75 70.808594 C 0.96875 59.460938 8.601562 47.089844 20.351562 44.730469 C 19.421875 39.828125 21.449219 34.488281 25.398438 31.449219 C 29.351562 28.410156 35.03125 27.808594 39.53125 29.960938 C 43.101562 21.941406 52.121094 16.71875 60.851562 17.609375 C 69.578125 18.5 77.351562 25.460938 79.210938 34.03125 C 79.949219 37.421875 79.828125 40.941406 79.621094 44.398438 C 84.53125 45.378906 89.28125 47.871094 92.230469 51.921875 C 94.339844 54.808594 95.441406 58.359375 95.660156 61.929688 C 96.109375 69.011719 92.789062 76.511719 86.589844 79.949219 C 82.378906 82.289062 77.351562 82.609375 72.539062 82.421875 C 67.730469 82.230469 62.890625 81.578125 58.109375 82.171875 C 58.109375 76.789062 58.109375 71.398438 58.109375 66.019531 C 63.351562 66.019531 68.601562 66.019531 73.839844 66.019531 C 65.808594 58.019531 57.800781 50 49.78125 41.980469 C 41.851562 49.910156 33.929688 57.839844 26 65.761719 C 31.378906 65.761719 36.75 65.761719 42.128906 65.761719 C 42.050781 71.121094 41.96875 76.480469 41.890625 81.828125 Z M 41.890625 81.828125 "/>
</g>
</svg>
